# xmcd CD database file
# Copyright (C) 1993-1998 Ti Kan
#
# Track frame offsets:
#  182
#  31040
#  44405
#  70312
#  80750
#  107480
#  118462
#  137400
#  149072
#  161212
#  186745
#  209660
#  230032
#  241252
#
# Disc length: 3365 seconds
#
# Revision: 1
# Processed by: cddbd v1.4b41PL1 Copyright (c) Steve Scherf et al.
# Submitted via: CDWizzard Release:4.35
#
DISCID=dd0d230e
DTITLE=Eric Clapton - A Wonderful Night (live)
DYEAR=1900
DGENRE=
TTITLE0=Smokestack Lightning
TTITLE1=You can't judge a  book by looking at it's cover
TTITLE2=Take it easy baby
TTITLE3=Let it rock
TTITLE4=I wish I would
TTITLE5=Boom Boom
TTITLE6=Who do you love
TTITLE7=Got love if you want it
TTITLE8=Good morning little schoolgirl
TTITLE9=Respectable
TTITLE10=Five long years
TTITLE11=I'm a man
TTITLE12=For your love
TTITLE13=Sweet Music
EXTD=
EXTT0=
EXTT1=
EXTT2=
EXTT3=
EXTT4=
EXTT5=
EXTT6=
EXTT7=
EXTT8=
EXTT9=
EXTT10=
EXTT11=
EXTT12=
EXTT13=
PLAYORDER=
